<?xml version="1.0" standalone="no"?>
<!DOCTYPE svg PUBLIC "-//W3C//DTD SVG 20010904//EN"
 "http://www.w3.org/TR/2001/REC-SVG-20010904/DTD/svg10.dtd">
<svg version="1.0" xmlns="http://www.w3.org/2000/svg"
 width="120.000000pt" height="120.000000pt" viewBox="0 0 120.000000 120.000000"
 preserveAspectRatio="xMidYMid meet">
<metadata>
Created by potrace 1.14, written by Peter Selinger 2001-2017
</metadata>
<g transform="translate(0.000000,120.000000) scale(0.100000,-0.100000)"
fill="#000000" stroke="none">
<path d="M235 959 c-89 -16 -156 -65 -171 -125 -8 -31 -5 -33 39 -41 31 -5 36
-2 48 23 24 48 73 74 143 74 105 0 155 -44 152 -134 l-1 -30 -95 -1 c-200 -3
-310 -76 -310 -204 0 -85 56 -151 144 -171 93 -21 173 3 234 68 l32 35 0 -31
c0 -53 8 -62 57 -62 42 0 45 2 40 23 -4 12 -7 108 -8 212 -2 228 -11 276 -64
322 -48 41 -146 58 -240 42z m210 -355 c-1 -65 -31 -121 -83 -157 -39 -26 -71
-33 -140 -28 -39 2 -82 53 -82 96 0 95 81 142 240 140 l65 -1 0 -50z"/>
<path d="M781 952 c-70 -15 -134 -66 -146 -115 -9 -34 -7 -36 38 -44 31 -5 36
-2 48 22 29 59 112 88 203 71 39 -7 85 -47 87 -74 1 -9 2 -32 3 -51 l1 -34
-90 -2 c-143 -4 -215 -26 -266 -82 -37 -39 -46 -61 -48 -118 -2 -67 30 -122
89 -155 36 -20 58 -24 115 -24 82 1 139 25 179 76 14 18 26 29 27 23 0 -5 2
-25 3 -42 3 -40 4 -41 41 -43 52 -4 56 -2 51 27 -3 14 -6 109 -6 211 -2 222
-12 273 -65 319 -53 46 -154 60 -264 35z m227 -301 c29 -3 8 -111 -34 -167
-77 -105 -264 -82 -264 32 0 105 105 153 298 135z"/>
<path d="M40 283 c0 -27 4 -42 10 -38 6 3 10 13 10 21 0 8 4 13 8 10 4 -2 14
-1 22 4 20 13 0 45 -29 46 -18 1 -21 -4 -21 -43z m40 17 c0 -5 -4 -10 -10 -10
-5 0 -10 5 -10 10 0 6 5 10 10 10 6 0 10 -4 10 -10z"/>
<path d="M189 315 c-4 -54 -1 -69 11 -73 9 -3 11 2 7 18 l-6 22 25 -23 c13
-12 24 -17 24 -11 0 6 -5 14 -10 17 -7 4 -7 13 0 25 8 15 6 21 -9 30 -27 14
-41 13 -42 -5z m36 -15 c-3 -5 -11 -10 -16 -10 -6 0 -7 5 -4 10 3 6 11 10 16
10 6 0 7 -4 4 -10z"/>
<path d="M349 314 c-33 -32 4 -84 47 -67 20 7 18 69 -2 77 -23 9 -28 8 -45
-10z m44 -24 c3 -11 1 -23 -4 -26 -15 -9 -39 15 -32 32 8 21 30 17 36 -6z"/>
<path d="M520 296 c0 -27 -4 -36 -17 -36 -14 0 -15 -2 -4 -12 10 -11 15 -9 27
6 16 23 19 62 4 71 -6 4 -10 -8 -10 -29z"/>
<path d="M634 315 c-12 -30 1 -68 24 -71 12 -2 22 1 22 6 0 6 -8 10 -17 10
-16 1 -16 2 1 15 17 13 18 15 3 15 -9 0 -17 5 -17 10 0 6 7 10 15 10 23 0 18
16 -6 17 -11 1 -22 -4 -25 -12z"/>
<path d="M778 324 c-12 -11 -10 -84 2 -84 6 0 10 7 10 17 0 15 1 15 18 0 27
-25 35 -21 16 9 -13 19 -14 28 -5 37 19 19 12 31 -8 13 -18 -16 -20 -16 -23
-1 -1 9 -6 13 -10 9z"/>
<path d="M920 319 c0 -5 5 -9 10 -9 6 0 10 -16 10 -36 0 -21 4 -33 10 -29 6 3
10 19 10 36 0 16 5 29 10 29 25 0 7 15 -20 16 -16 1 -30 -2 -30 -7z"/>
<path d="M1070 316 c-9 -12 -7 -18 9 -32 23 -20 19 -36 -7 -27 -13 5 -14 3 -6
-7 14 -15 54 -4 54 14 0 8 -10 21 -22 29 l-23 16 23 0 c13 1 20 5 17 11 -9 14
-31 12 -45 -4z"/>
</g>
</svg>
