<?xml version="1.0" standalone="no"?>
<!DOCTYPE svg PUBLIC "-//W3C//DTD SVG 20010904//EN"
 "http://www.w3.org/TR/2001/REC-SVG-20010904/DTD/svg10.dtd">
<svg version="1.0" xmlns="http://www.w3.org/2000/svg"
 width="179.000000pt" height="180.000000pt" viewBox="0 0 179.000000 180.000000"
 preserveAspectRatio="xMidYMid meet">
<metadata>
Created by potrace 1.15, written by Peter Selinger 2001-2017
</metadata>
<g transform="translate(0.000000,180.000000) scale(0.100000,-0.100000)"
fill="#ffffff" stroke="none">
<path d="M768 1690 c-310 -57 -552 -277 -634 -580 -27 -101 -25 -292 4 -394
77 -269 280 -471 548 -548 112 -32 296 -32 407 0 271 78 471 278 549 548 32
112 32 296 0 407 -77 267 -281 473 -542 547 -84 23 -257 34 -332 20z m307 -64
c84 -22 210 -87 275 -140 307 -253 357 -695 115 -1014 -139 -183 -380 -293
-615 -279 -313 18 -566 220 -661 527 -30 97 -33 280 -6 380 73 275 306 490
585 540 66 12 236 4 307 -14z"/>
<path d="M680 940 l0 -290 220 0 220 0 0 40 0 40 -180 0 -180 0 0 90 0 90 160
0 160 0 0 40 0 40 -160 0 -160 0 0 80 0 80 180 0 180 0 0 40 0 40 -220 0 -220
0 0 -290z"/>
</g>
</svg>
